<?xml version="1.0" encoding="UTF-8"?>
<svg width="256" height="256" viewBox="0 0 256 256" fill="none" xmlns="http://www.w3.org/2000/svg">
<rect width="256" height="256" rx="56" fill="#5865F2"/>
<path fill="#fff" d="M186 92c-12-9-24-10-24-10l-2 4c12 3 18 8 18 8-16-9-32-9-32-9h-1s-16 0-32 9c0 0 6-5 18-8l-2-4s-12 1-24 10c0 0-12 22-12 49 0 0 7 12 28 13 0 0 3-4 6-8-12-3-16-9-16-9s1 1 4 2c0 0 1 0 1 1 0 0 0 0 0 0 0 0 1 0 2 1 6 2 12 3 15 3h2c3 0 9-1 15-3 1-1 2-1 2-1 0 0 0 0 0 0 0-1 1-1 1-1 3-1 4-2 4-2s-4 6-16 9c3 4 6 8 6 8 21-1 28-13 28-13 0-27-12-49-12-49zM112 136c-5 0-9-5-9-11s4-11 9-11c5 0 9 5 9 11s-4 11-9 11zm32 0c-5 0-9-5-9-11s4-11 9-11c5 0 9 5 9 11s-4 11-9 11z"/>
</svg>
