<?xml version="1.0" encoding="UTF-8"?>
<svg width="256" height="256" viewBox="0 0 256 256" fill="none" xmlns="http://www.w3.org/2000/svg">
<rect width="256" height="256" rx="56" fill="#000000"/>
<path d="M164 88c10 10 22 16 36 16v24c-12 0-24-3-36-10v44c0 22-18 40-40 40s-40-18-40-40 18-40 40-40c3 0 6 0 8 1v24c-2-1-5-1-8-1-11 0-20 9-20 20s9 20 20 20 20-9 20-20V64h20c0 9 4 17 10 24z" fill="#25F4EE"/>
<path d="M164 76c10 10 22 16 36 16v20c-12 0-24-3-36-10v44c0 22-18 40-40 40-12 0-24-6-31-14 7 5 15 8 24 8 22 0 40-18 40-40V60h20c0 6 3 12 7 16 0 0-9-9-20-16z" fill="#FE2C55" fill-opacity=".9"/>
</svg>
