<?xml version="1.0" encoding="UTF-8"?>
<svg width="256" height="256" viewBox="0 0 256 256" fill="none" xmlns="http://www.w3.org/2000/svg">
<rect width="256" height="256" rx="56" fill="#FF0000"/>
<path d="M176.3 129.2c0 0-1.1 7.9-3.2 11.4-2 3.6-4.9 5.9-8.7 6.1-12.2 0.9-52.4 0.9-64.6 0-3.8-0.3-6.7-2.6-8.7-6.1-2.1-3.5-3.2-11.4-3.2-11.4s-1.1-7.9 3.2-11.4c2-3.6 4.9-5.9 8.7-6.1 12.2-0.9 52.4-0.9 64.6 0 3.8 0.3 6.7 2.6 8.7 6.1 4.3 3.5 3.2 11.4 3.2 11.4z" fill="#fff"/>
<path d="M119 116l26 13-26 13v-26z" fill="#FF0000"/>
</svg>
